<mxfile host="app.diagrams.net" modified="2021-05-14T10:42:35.942Z" agent="5.0 (Macintosh; Intel Mac OS X 10_15_6) AppleWebKit/537.36 (KHTML, like Gecko) Chrome/90.0.4430.212 Safari/537.36" etag="ZAurIuqeFIgo9sEYbXzt" version="14.6.12" type="github">
  <diagram id="C5RBs43oDa-KdzZeNtuy" name="UserLogic">
    <mxGraphModel dx="1426" dy="771" grid="1" gridSize="10" guides="1" tooltips="1" connect="1" arrows="1" fold="1" page="1" pageScale="1" pageWidth="827" pageHeight="1169" math="0" shadow="0">
      <root>
        <mxCell id="WIyWlLk6GJQsqaUBKTNV-0" />
        <mxCell id="WIyWlLk6GJQsqaUBKTNV-1" parent="WIyWlLk6GJQsqaUBKTNV-0" />
        <mxCell id="U1Xu8Lq1FuDB0URxKzO4-0" style="edgeStyle=orthogonalEdgeStyle;rounded=0;orthogonalLoop=1;jettySize=auto;html=1;exitX=0.75;exitY=1;exitDx=0;exitDy=0;entryX=0;entryY=0.5;entryDx=0;entryDy=0;" parent="WIyWlLk6GJQsqaUBKTNV-1" source="WIyWlLk6GJQsqaUBKTNV-3" target="WIyWlLk6GJQsqaUBKTNV-6" edge="1">
          <mxGeometry relative="1" as="geometry" />
        </mxCell>
        <mxCell id="U1Xu8Lq1FuDB0URxKzO4-1" style="edgeStyle=orthogonalEdgeStyle;rounded=0;orthogonalLoop=1;jettySize=auto;html=1;exitX=0.5;exitY=1;exitDx=0;exitDy=0;entryX=0;entryY=0.5;entryDx=0;entryDy=0;" parent="WIyWlLk6GJQsqaUBKTNV-1" source="WIyWlLk6GJQsqaUBKTNV-3" target="WIyWlLk6GJQsqaUBKTNV-10" edge="1">
          <mxGeometry relative="1" as="geometry" />
        </mxCell>
        <mxCell id="U1Xu8Lq1FuDB0URxKzO4-2" style="edgeStyle=orthogonalEdgeStyle;rounded=0;orthogonalLoop=1;jettySize=auto;html=1;exitX=0.25;exitY=1;exitDx=0;exitDy=0;entryX=0;entryY=0.5;entryDx=0;entryDy=0;" parent="WIyWlLk6GJQsqaUBKTNV-1" source="WIyWlLk6GJQsqaUBKTNV-3" target="iknLp_WJPqp2MoD4062r-0" edge="1">
          <mxGeometry relative="1" as="geometry" />
        </mxCell>
        <mxCell id="WIyWlLk6GJQsqaUBKTNV-3" value="Start Page" style="rounded=1;whiteSpace=wrap;html=1;fontSize=12;glass=0;strokeWidth=1;shadow=0;" parent="WIyWlLk6GJQsqaUBKTNV-1" vertex="1">
          <mxGeometry x="294" y="240" width="120" height="40" as="geometry" />
        </mxCell>
        <mxCell id="WIyWlLk6GJQsqaUBKTNV-5" value="" style="edgeStyle=orthogonalEdgeStyle;rounded=0;html=1;jettySize=auto;orthogonalLoop=1;fontSize=11;endArrow=block;endFill=0;endSize=8;strokeWidth=1;shadow=0;labelBackgroundColor=none;entryX=-0.011;entryY=0.603;entryDx=0;entryDy=0;entryPerimeter=0;" parent="WIyWlLk6GJQsqaUBKTNV-1" source="WIyWlLk6GJQsqaUBKTNV-6" target="U1Xu8Lq1FuDB0URxKzO4-5" edge="1">
          <mxGeometry y="10" relative="1" as="geometry">
            <mxPoint as="offset" />
            <mxPoint x="791" y="334" as="targetPoint" />
          </mxGeometry>
        </mxCell>
        <mxCell id="WIyWlLk6GJQsqaUBKTNV-6" value="Random &lt;br&gt;Search" style="rhombus;whiteSpace=wrap;html=1;shadow=0;fontFamily=Helvetica;fontSize=12;align=center;strokeWidth=1;spacing=6;spacingTop=-4;" parent="WIyWlLk6GJQsqaUBKTNV-1" vertex="1">
          <mxGeometry x="450" y="295" width="100" height="80" as="geometry" />
        </mxCell>
        <mxCell id="U1Xu8Lq1FuDB0URxKzO4-14" style="edgeStyle=orthogonalEdgeStyle;rounded=0;orthogonalLoop=1;jettySize=auto;html=1;exitX=1;exitY=0.5;exitDx=0;exitDy=0;" parent="WIyWlLk6GJQsqaUBKTNV-1" source="WIyWlLk6GJQsqaUBKTNV-10" target="U1Xu8Lq1FuDB0URxKzO4-13" edge="1">
          <mxGeometry relative="1" as="geometry" />
        </mxCell>
        <mxCell id="WIyWlLk6GJQsqaUBKTNV-10" value="Login" style="rhombus;whiteSpace=wrap;html=1;shadow=0;fontFamily=Helvetica;fontSize=12;align=center;strokeWidth=1;spacing=6;spacingTop=-4;" parent="WIyWlLk6GJQsqaUBKTNV-1" vertex="1">
          <mxGeometry x="450" y="390" width="100" height="80" as="geometry" />
        </mxCell>
        <mxCell id="U1Xu8Lq1FuDB0URxKzO4-40" style="edgeStyle=orthogonalEdgeStyle;rounded=0;orthogonalLoop=1;jettySize=auto;html=1;exitX=1;exitY=0.5;exitDx=0;exitDy=0;entryX=0;entryY=0.5;entryDx=0;entryDy=0;" parent="WIyWlLk6GJQsqaUBKTNV-1" source="iknLp_WJPqp2MoD4062r-0" target="U1Xu8Lq1FuDB0URxKzO4-39" edge="1">
          <mxGeometry relative="1" as="geometry" />
        </mxCell>
        <mxCell id="iknLp_WJPqp2MoD4062r-0" value="Register" style="rhombus;whiteSpace=wrap;html=1;shadow=0;fontFamily=Helvetica;fontSize=12;align=center;strokeWidth=1;spacing=6;spacingTop=-4;" parent="WIyWlLk6GJQsqaUBKTNV-1" vertex="1">
          <mxGeometry x="440" y="490" width="100" height="80" as="geometry" />
        </mxCell>
        <mxCell id="U1Xu8Lq1FuDB0URxKzO4-5" value="ARTWORK" style="shape=card;whiteSpace=wrap;html=1;" parent="WIyWlLk6GJQsqaUBKTNV-1" vertex="1">
          <mxGeometry x="620" y="275" width="80" height="100" as="geometry" />
        </mxCell>
        <mxCell id="U1Xu8Lq1FuDB0URxKzO4-22" style="edgeStyle=orthogonalEdgeStyle;rounded=0;orthogonalLoop=1;jettySize=auto;html=1;exitX=1;exitY=0.5;exitDx=0;exitDy=0;entryX=0;entryY=0.5;entryDx=0;entryDy=0;" parent="WIyWlLk6GJQsqaUBKTNV-1" source="U1Xu8Lq1FuDB0URxKzO4-13" target="U1Xu8Lq1FuDB0URxKzO4-15" edge="1">
          <mxGeometry relative="1" as="geometry" />
        </mxCell>
        <mxCell id="U1Xu8Lq1FuDB0URxKzO4-23" style="edgeStyle=orthogonalEdgeStyle;rounded=0;orthogonalLoop=1;jettySize=auto;html=1;exitX=1;exitY=0.5;exitDx=0;exitDy=0;entryX=0;entryY=0.5;entryDx=0;entryDy=0;" parent="WIyWlLk6GJQsqaUBKTNV-1" source="U1Xu8Lq1FuDB0URxKzO4-13" target="U1Xu8Lq1FuDB0URxKzO4-16" edge="1">
          <mxGeometry relative="1" as="geometry" />
        </mxCell>
        <mxCell id="U1Xu8Lq1FuDB0URxKzO4-24" style="edgeStyle=orthogonalEdgeStyle;rounded=0;orthogonalLoop=1;jettySize=auto;html=1;exitX=1;exitY=0.5;exitDx=0;exitDy=0;entryX=0;entryY=0.5;entryDx=0;entryDy=0;" parent="WIyWlLk6GJQsqaUBKTNV-1" source="U1Xu8Lq1FuDB0URxKzO4-13" target="U1Xu8Lq1FuDB0URxKzO4-17" edge="1">
          <mxGeometry relative="1" as="geometry" />
        </mxCell>
        <mxCell id="U1Xu8Lq1FuDB0URxKzO4-25" style="edgeStyle=orthogonalEdgeStyle;rounded=0;orthogonalLoop=1;jettySize=auto;html=1;exitX=1;exitY=0.5;exitDx=0;exitDy=0;entryX=0;entryY=0.5;entryDx=0;entryDy=0;" parent="WIyWlLk6GJQsqaUBKTNV-1" source="U1Xu8Lq1FuDB0URxKzO4-13" target="U1Xu8Lq1FuDB0URxKzO4-19" edge="1">
          <mxGeometry relative="1" as="geometry" />
        </mxCell>
        <mxCell id="U1Xu8Lq1FuDB0URxKzO4-13" value="Login Form" style="rounded=0;whiteSpace=wrap;html=1;" parent="WIyWlLk6GJQsqaUBKTNV-1" vertex="1">
          <mxGeometry x="600" y="400" width="120" height="60" as="geometry" />
        </mxCell>
        <mxCell id="U1Xu8Lq1FuDB0URxKzO4-31" style="edgeStyle=orthogonalEdgeStyle;rounded=0;orthogonalLoop=1;jettySize=auto;html=1;exitX=1;exitY=0.5;exitDx=0;exitDy=0;entryX=0;entryY=0.5;entryDx=0;entryDy=0;" parent="WIyWlLk6GJQsqaUBKTNV-1" source="U1Xu8Lq1FuDB0URxKzO4-15" target="U1Xu8Lq1FuDB0URxKzO4-34" edge="1">
          <mxGeometry relative="1" as="geometry">
            <mxPoint x="1790" y="428" as="targetPoint" />
          </mxGeometry>
        </mxCell>
        <mxCell id="U1Xu8Lq1FuDB0URxKzO4-35" style="edgeStyle=orthogonalEdgeStyle;rounded=0;orthogonalLoop=1;jettySize=auto;html=1;exitX=1;exitY=0.5;exitDx=0;exitDy=0;entryX=0;entryY=0.5;entryDx=0;entryDy=0;" parent="WIyWlLk6GJQsqaUBKTNV-1" source="U1Xu8Lq1FuDB0URxKzO4-16" target="U1Xu8Lq1FuDB0URxKzO4-34" edge="1">
          <mxGeometry relative="1" as="geometry" />
        </mxCell>
        <mxCell id="U1Xu8Lq1FuDB0URxKzO4-36" style="edgeStyle=orthogonalEdgeStyle;rounded=0;orthogonalLoop=1;jettySize=auto;html=1;exitX=1;exitY=0.5;exitDx=0;exitDy=0;entryX=0;entryY=0.5;entryDx=0;entryDy=0;" parent="WIyWlLk6GJQsqaUBKTNV-1" source="U1Xu8Lq1FuDB0URxKzO4-17" target="U1Xu8Lq1FuDB0URxKzO4-34" edge="1">
          <mxGeometry relative="1" as="geometry">
            <mxPoint x="1820" y="490" as="targetPoint" />
          </mxGeometry>
        </mxCell>
        <mxCell id="U1Xu8Lq1FuDB0URxKzO4-37" style="edgeStyle=orthogonalEdgeStyle;rounded=0;orthogonalLoop=1;jettySize=auto;html=1;exitX=1;exitY=0.5;exitDx=0;exitDy=0;entryX=0;entryY=0.5;entryDx=0;entryDy=0;" parent="WIyWlLk6GJQsqaUBKTNV-1" source="U1Xu8Lq1FuDB0URxKzO4-19" target="U1Xu8Lq1FuDB0URxKzO4-34" edge="1">
          <mxGeometry relative="1" as="geometry" />
        </mxCell>
        <mxCell id="U1Xu8Lq1FuDB0URxKzO4-51" style="edgeStyle=orthogonalEdgeStyle;rounded=0;orthogonalLoop=1;jettySize=auto;html=1;exitX=1;exitY=0.5;exitDx=0;exitDy=0;entryX=0;entryY=0.5;entryDx=0;entryDy=0;entryPerimeter=0;" parent="WIyWlLk6GJQsqaUBKTNV-1" source="U1Xu8Lq1FuDB0URxKzO4-34" target="U1Xu8Lq1FuDB0URxKzO4-50" edge="1">
          <mxGeometry relative="1" as="geometry" />
        </mxCell>
        <mxCell id="U1Xu8Lq1FuDB0URxKzO4-34" value="MUSEUMS" style="shape=hexagon;perimeter=hexagonPerimeter2;whiteSpace=wrap;html=1;fixedSize=1;" parent="WIyWlLk6GJQsqaUBKTNV-1" vertex="1">
          <mxGeometry x="990" y="375" width="120" height="80" as="geometry" />
        </mxCell>
        <mxCell id="U1Xu8Lq1FuDB0URxKzO4-38" value="" style="group" parent="WIyWlLk6GJQsqaUBKTNV-1" vertex="1" connectable="0">
          <mxGeometry x="800" y="275" width="120" height="310" as="geometry" />
        </mxCell>
        <mxCell id="U1Xu8Lq1FuDB0URxKzO4-15" value="Text Search" style="rounded=1;whiteSpace=wrap;html=1;" parent="U1Xu8Lq1FuDB0URxKzO4-38" vertex="1">
          <mxGeometry width="120" height="60" as="geometry" />
        </mxCell>
        <mxCell id="U1Xu8Lq1FuDB0URxKzO4-16" value="Feelings Search" style="rounded=1;whiteSpace=wrap;html=1;" parent="U1Xu8Lq1FuDB0URxKzO4-38" vertex="1">
          <mxGeometry y="80" width="120" height="60" as="geometry" />
        </mxCell>
        <mxCell id="U1Xu8Lq1FuDB0URxKzO4-17" value="Style Search" style="rounded=1;whiteSpace=wrap;html=1;" parent="U1Xu8Lq1FuDB0URxKzO4-38" vertex="1">
          <mxGeometry y="160" width="120" height="60" as="geometry" />
        </mxCell>
        <mxCell id="U1Xu8Lq1FuDB0URxKzO4-19" value="Theme Search" style="rounded=1;whiteSpace=wrap;html=1;" parent="U1Xu8Lq1FuDB0URxKzO4-38" vertex="1">
          <mxGeometry y="250" width="120" height="60" as="geometry" />
        </mxCell>
        <mxCell id="U1Xu8Lq1FuDB0URxKzO4-46" style="edgeStyle=orthogonalEdgeStyle;rounded=0;orthogonalLoop=1;jettySize=auto;html=1;exitX=1;exitY=0.5;exitDx=0;exitDy=0;entryX=0;entryY=0.5;entryDx=0;entryDy=0;" parent="WIyWlLk6GJQsqaUBKTNV-1" source="U1Xu8Lq1FuDB0URxKzO4-39" target="U1Xu8Lq1FuDB0URxKzO4-19" edge="1">
          <mxGeometry relative="1" as="geometry">
            <mxPoint x="990" y="430" as="targetPoint" />
          </mxGeometry>
        </mxCell>
        <mxCell id="U1Xu8Lq1FuDB0URxKzO4-47" style="edgeStyle=orthogonalEdgeStyle;rounded=0;orthogonalLoop=1;jettySize=auto;html=1;exitX=1;exitY=0.5;exitDx=0;exitDy=0;entryX=0;entryY=0.5;entryDx=0;entryDy=0;" parent="WIyWlLk6GJQsqaUBKTNV-1" source="U1Xu8Lq1FuDB0URxKzO4-39" target="U1Xu8Lq1FuDB0URxKzO4-17" edge="1">
          <mxGeometry relative="1" as="geometry" />
        </mxCell>
        <mxCell id="U1Xu8Lq1FuDB0URxKzO4-48" style="edgeStyle=orthogonalEdgeStyle;rounded=0;orthogonalLoop=1;jettySize=auto;html=1;exitX=1;exitY=0.5;exitDx=0;exitDy=0;entryX=0;entryY=0.5;entryDx=0;entryDy=0;" parent="WIyWlLk6GJQsqaUBKTNV-1" source="U1Xu8Lq1FuDB0URxKzO4-39" target="U1Xu8Lq1FuDB0URxKzO4-16" edge="1">
          <mxGeometry relative="1" as="geometry" />
        </mxCell>
        <mxCell id="U1Xu8Lq1FuDB0URxKzO4-49" style="edgeStyle=orthogonalEdgeStyle;rounded=0;orthogonalLoop=1;jettySize=auto;html=1;exitX=1;exitY=0.5;exitDx=0;exitDy=0;entryX=0;entryY=0.5;entryDx=0;entryDy=0;" parent="WIyWlLk6GJQsqaUBKTNV-1" source="U1Xu8Lq1FuDB0URxKzO4-39" target="U1Xu8Lq1FuDB0URxKzO4-15" edge="1">
          <mxGeometry relative="1" as="geometry" />
        </mxCell>
        <mxCell id="U1Xu8Lq1FuDB0URxKzO4-39" value="Register Form" style="rounded=0;whiteSpace=wrap;html=1;" parent="WIyWlLk6GJQsqaUBKTNV-1" vertex="1">
          <mxGeometry x="600" y="500" width="120" height="60" as="geometry" />
        </mxCell>
        <mxCell id="U1Xu8Lq1FuDB0URxKzO4-54" style="edgeStyle=orthogonalEdgeStyle;rounded=0;orthogonalLoop=1;jettySize=auto;html=1;exitX=1;exitY=0.5;exitDx=0;exitDy=0;exitPerimeter=0;entryX=0;entryY=0.5;entryDx=0;entryDy=0;" parent="WIyWlLk6GJQsqaUBKTNV-1" source="U1Xu8Lq1FuDB0URxKzO4-50" target="U1Xu8Lq1FuDB0URxKzO4-56" edge="1">
          <mxGeometry relative="1" as="geometry">
            <mxPoint x="1350" y="415" as="targetPoint" />
          </mxGeometry>
        </mxCell>
        <mxCell id="U1Xu8Lq1FuDB0URxKzO4-50" value="Results list" style="verticalLabelPosition=bottom;verticalAlign=top;html=1;shape=mxgraph.basic.6_point_star" parent="WIyWlLk6GJQsqaUBKTNV-1" vertex="1">
          <mxGeometry x="1160" y="370" width="100" height="90" as="geometry" />
        </mxCell>
        <mxCell id="U1Xu8Lq1FuDB0URxKzO4-55" value="Favorites&amp;nbsp;list" style="verticalLabelPosition=bottom;verticalAlign=top;html=1;shape=mxgraph.basic.6_point_star" parent="WIyWlLk6GJQsqaUBKTNV-1" vertex="1">
          <mxGeometry x="1160" y="590" width="100" height="90" as="geometry" />
        </mxCell>
        <mxCell id="U1Xu8Lq1FuDB0URxKzO4-58" value="" style="group" parent="WIyWlLk6GJQsqaUBKTNV-1" vertex="1" connectable="0">
          <mxGeometry x="1340" y="325" width="180" height="180" as="geometry" />
        </mxCell>
        <mxCell id="U1Xu8Lq1FuDB0URxKzO4-56" value="&lt;span style=&quot;color: rgba(0 , 0 , 0 , 0) ; font-family: monospace ; font-size: 0px&quot;&gt;%3CmxGraphModel%3E%3Croot%3E%3CmxCell%20id%3D%220%22%2F%3E%3CmxCell%20id%3D%221%22%20parent%3D%220%22%2F%3E%3CmxCell%20id%3D%222%22%20value%3D%22ARTWORK%22%20style%3D%22shape%3Dcard%3BwhiteSpace%3Dwrap%3Bhtml%3D1%3B%22%20vertex%3D%221%22%20parent%3D%221%22%3E%3CmxGeometry%20x%3D%221420%22%20y%3D%22535%22%20width%3D%2280%22%20height%3D%22100%22%20as%3D%22geometry%22%2F%3E%3C%2FmxCell%3E%3C%2Froot%3E%3C%2FmxGraphModel%3E&lt;/span&gt;" style="whiteSpace=wrap;html=1;aspect=fixed;" parent="U1Xu8Lq1FuDB0URxKzO4-58" vertex="1">
          <mxGeometry width="180" height="180" as="geometry" />
        </mxCell>
        <mxCell id="U1Xu8Lq1FuDB0URxKzO4-57" value="ARTWORK" style="shape=card;whiteSpace=wrap;html=1;" parent="U1Xu8Lq1FuDB0URxKzO4-58" vertex="1">
          <mxGeometry x="50" y="45" width="80" height="100" as="geometry" />
        </mxCell>
        <mxCell id="U1Xu8Lq1FuDB0URxKzO4-60" value="MODAL" style="text;html=1;align=center;verticalAlign=middle;resizable=0;points=[];autosize=1;strokeColor=none;" parent="WIyWlLk6GJQsqaUBKTNV-1" vertex="1">
          <mxGeometry x="1400" y="295" width="60" height="20" as="geometry" />
        </mxCell>
        <mxCell id="U1Xu8Lq1FuDB0URxKzO4-62" style="edgeStyle=orthogonalEdgeStyle;rounded=0;orthogonalLoop=1;jettySize=auto;html=1;exitX=0;exitY=0.5;exitDx=0;exitDy=0;exitPerimeter=0;entryX=1;entryY=0.5;entryDx=0;entryDy=0;" parent="WIyWlLk6GJQsqaUBKTNV-1" source="U1Xu8Lq1FuDB0URxKzO4-61" target="U1Xu8Lq1FuDB0URxKzO4-56" edge="1">
          <mxGeometry relative="1" as="geometry" />
        </mxCell>
        <mxCell id="U1Xu8Lq1FuDB0URxKzO4-61" value="NOTE" style="shape=note;whiteSpace=wrap;html=1;backgroundOutline=1;darkOpacity=0.05;" parent="WIyWlLk6GJQsqaUBKTNV-1" vertex="1">
          <mxGeometry x="1654" y="170" width="104" height="130" as="geometry" />
        </mxCell>
        <mxCell id="U1Xu8Lq1FuDB0URxKzO4-65" style="edgeStyle=orthogonalEdgeStyle;rounded=0;orthogonalLoop=1;jettySize=auto;html=1;exitX=0;exitY=0.5;exitDx=0;exitDy=0;exitPerimeter=0;entryX=1;entryY=0.5;entryDx=0;entryDy=0;" parent="WIyWlLk6GJQsqaUBKTNV-1" source="U1Xu8Lq1FuDB0URxKzO4-64" target="U1Xu8Lq1FuDB0URxKzO4-56" edge="1">
          <mxGeometry relative="1" as="geometry" />
        </mxCell>
        <mxCell id="U1Xu8Lq1FuDB0URxKzO4-64" value="SUGGESTIONS" style="shape=note;whiteSpace=wrap;html=1;backgroundOutline=1;darkOpacity=0.05;" parent="WIyWlLk6GJQsqaUBKTNV-1" vertex="1">
          <mxGeometry x="1654" y="345" width="108" height="135" as="geometry" />
        </mxCell>
        <mxCell id="U1Xu8Lq1FuDB0URxKzO4-66" style="edgeStyle=orthogonalEdgeStyle;rounded=0;orthogonalLoop=1;jettySize=auto;html=1;exitX=0.5;exitY=1;exitDx=0;exitDy=0;exitPerimeter=0;entryX=1;entryY=0.5;entryDx=0;entryDy=0;entryPerimeter=0;" parent="WIyWlLk6GJQsqaUBKTNV-1" source="U1Xu8Lq1FuDB0URxKzO4-57" target="U1Xu8Lq1FuDB0URxKzO4-55" edge="1">
          <mxGeometry relative="1" as="geometry" />
        </mxCell>
        <mxCell id="Irh8vO6wR_MeA8xufXPv-1" style="edgeStyle=orthogonalEdgeStyle;rounded=0;orthogonalLoop=1;jettySize=auto;html=1;exitX=0;exitY=0.5;exitDx=0;exitDy=0;exitPerimeter=0;entryX=1;entryY=0.5;entryDx=0;entryDy=0;" parent="WIyWlLk6GJQsqaUBKTNV-1" source="Irh8vO6wR_MeA8xufXPv-0" target="U1Xu8Lq1FuDB0URxKzO4-56" edge="1">
          <mxGeometry relative="1" as="geometry" />
        </mxCell>
        <mxCell id="Irh8vO6wR_MeA8xufXPv-0" value="COMPUTER&amp;nbsp;&lt;br&gt;VISION&lt;br&gt;SCAN" style="shape=note;whiteSpace=wrap;html=1;backgroundOutline=1;darkOpacity=0.05;" parent="WIyWlLk6GJQsqaUBKTNV-1" vertex="1">
          <mxGeometry x="1654" y="530" width="108" height="135" as="geometry" />
        </mxCell>
      </root>
    </mxGraphModel>
  </diagram>
</mxfile>
